<?xml version="1.0" standalone="no"?>
<!DOCTYPE svg PUBLIC "-//W3C//DTD SVG 20010904//EN"
 "http://www.w3.org/TR/2001/REC-SVG-20010904/DTD/svg10.dtd">
<svg version="1.0" xmlns="http://www.w3.org/2000/svg"
 width="2204.000000pt" height="2204.000000pt" viewBox="0 0 2204.000000 2204.000000"
 preserveAspectRatio="xMidYMid meet">
<metadata>
Created by potrace 1.11, written by Peter Selinger 2001-2013
</metadata>
<g transform="translate(0.000000,2204.000000) scale(0.100000,-0.100000)"
fill="#000000" stroke="none">
<path d="M1268 19142 c-1 -5 -34 -24 -73 -42 -38 -18 -72 -36 -75 -39 -3 -3
-18 -13 -35 -21 -16 -8 -37 -23 -46 -32 -9 -10 -24 -18 -34 -18 -10 0 -16 -3
-12 -6 3 -4 -16 -28 -44 -55 -27 -26 -49 -51 -49 -55 0 -4 -10 -17 -22 -29
-13 -12 -32 -37 -42 -56 -44 -80 -126 -247 -126 -258 0 -6 -5 -19 -10 -29 -27
-45 -48 -199 -48 -342 1 -80 5 -152 9 -161 5 -9 11 -32 13 -50 9 -55 12 -68
19 -75 4 -4 7 -16 7 -26 0 -10 4 -18 8 -18 4 0 14 -17 21 -37 8 -20 18 -41 23
-47 5 -6 26 -36 48 -66 70 -99 95 -129 106 -130 7 0 26 -13 44 -30 18 -16 35
-30 39 -30 4 0 31 -12 62 -27 30 -16 60 -29 66 -30 67 -13 102 -16 188 -16
126 1 172 7 238 34 28 12 61 24 72 28 45 17 115 54 115 62 0 5 7 9 15 9 8 0
15 5 15 10 0 6 5 10 10 10 6 0 21 10 34 23 13 12 32 29 42 38 32 27 90 93 110
124 10 17 27 38 38 48 10 9 15 17 11 17 -4 0 -1 8 7 18 17 19 32 53 30 65 -1
4 3 7 9 7 5 0 7 5 4 10 -3 6 -2 10 4 10 6 0 13 16 17 35 3 19 10 35 14 35 7 0
28 50 36 85 1 6 11 45 21 89 32 131 24 387 -15 496 -3 8 -7 23 -8 33 -5 24
-70 155 -86 171 -29 32 -63 80 -60 88 1 4 -5 8 -14 8 -9 0 -12 5 -8 12 4 6 3
8 -3 5 -6 -4 -27 9 -46 28 -19 19 -38 35 -41 35 -4 0 -16 9 -28 20 -12 11 -28
20 -35 20 -7 0 -13 5 -13 10 0 6 -6 10 -13 10 -18 0 -67 24 -67 33 0 10 -438
9 -442 -1z"/>
<path d="M8705 17514 c-49 -7 -92 -10 -94 -8 -2 2 -9 0 -15 -5 -11 -8 -116
-45 -126 -44 -3 1 -23 -8 -45 -20 -22 -11 -42 -20 -45 -20 -12 1 -80 -32 -80
-39 0 -5 -7 -8 -15 -8 -8 0 -15 -4 -15 -10 0 -5 -7 -10 -15 -10 -8 0 -15 -4
-15 -10 0 -5 -7 -10 -15 -10 -8 0 -23 -7 -32 -14 -10 -8 -41 -32 -69 -53 -83
-61 -204 -167 -204 -177 0 -3 -16 -23 -36 -43 -69 -74 -90 -98 -114 -135 -14
-21 -28 -38 -31 -38 -4 0 -12 -13 -19 -30 -7 -16 -16 -30 -20 -30 -5 0 -13
-13 -19 -30 -5 -16 -17 -30 -25 -30 -9 0 -15 -3 -14 -7 4 -15 -13 -53 -23 -53
-6 0 -8 -4 -5 -9 3 -5 -1 -12 -10 -15 -8 -3 -13 -10 -10 -15 4 -5 3 -11 -1
-13 -5 -1 -18 -23 -31 -48 -12 -25 -27 -52 -31 -60 -21 -37 -54 -115 -54 -127
0 -7 -4 -13 -9 -13 -4 0 -8 -8 -8 -18 0 -10 -7 -27 -15 -38 -8 -12 -11 -24 -8
-28 3 -3 0 -6 -7 -6 -7 0 -11 -3 -7 -6 3 -4 0 -22 -8 -40 -8 -19 -14 -38 -15
-42 0 -5 -14 -57 -25 -92 -7 -22 -16 -58 -19 -75 -1 -11 -6 -27 -9 -35 -4 -8
-9 -26 -11 -40 -3 -14 -5 -25 -6 -25 -3 0 -10 -40 -15 -80 -2 -22 -8 -58 -11
-80 -4 -22 -8 -51 -9 -65 -1 -14 -5 -50 -10 -80 -10 -68 -12 -359 -3 -420 3
-25 9 -70 12 -100 4 -30 9 -68 12 -83 3 -15 7 -44 9 -65 4 -36 12 -102 20
-151 3 -13 8 -27 13 -30 7 -5 14 -51 16 -103 0 -10 3 -18 7 -18 3 0 12 -26 19
-57 7 -32 17 -64 22 -70 6 -7 8 -13 5 -13 -6 0 21 -98 31 -115 4 -5 7 -14 9
-20 1 -5 9 -28 17 -50 8 -22 15 -48 16 -57 0 -10 4 -18 10 -18 5 0 13 -12 16
-27 4 -16 15 -44 25 -64 10 -20 15 -39 12 -43 -4 -3 -1 -6 5 -6 7 0 12 -9 12
-19 0 -11 5 -21 10 -23 6 -2 12 -14 15 -27 2 -14 10 -28 17 -33 7 -4 9 -8 5
-8 -5 0 -1 -7 7 -16 9 -8 14 -19 11 -24 -3 -4 2 -13 10 -20 8 -7 13 -16 10
-20 -3 -4 2 -10 10 -14 8 -3 15 -12 15 -19 0 -8 7 -20 15 -27 8 -7 15 -19 15
-28 0 -8 16 -34 35 -58 19 -23 35 -47 35 -52 0 -5 8 -18 18 -30 9 -11 24 -30
32 -42 8 -12 26 -35 40 -50 31 -33 70 -81 90 -109 8 -12 20 -21 27 -21 6 0 15
-9 18 -20 3 -11 13 -20 21 -20 8 0 12 -4 9 -10 -3 -5 2 -10 11 -10 10 0 14 -3
11 -7 -4 -3 9 -17 28 -30 19 -13 35 -27 35 -31 0 -4 9 -8 21 -9 11 -1 28 -10
37 -20 10 -10 31 -25 47 -33 17 -8 32 -18 35 -21 10 -13 81 -49 95 -49 8 0 15
-4 15 -9 0 -7 41 -29 70 -37 36 -11 50 -18 50 -26 0 -5 3 -7 8 -4 16 10 44
-22 37 -43 -6 -21 -15 -60 -20 -96 -1 -11 -8 -33 -14 -50 -7 -16 -12 -31 -12
-33 5 -13 -30 -112 -39 -112 -3 0 -6 -8 -7 -17 -1 -25 -12 -68 -23 -97 -5 -13
-6 -27 -3 -30 4 -3 1 -6 -5 -6 -7 0 -11 -3 -10 -7 1 -5 -4 -28 -11 -53 -7 -25
-13 -46 -12 -48 1 -1 -6 -16 -14 -32 -8 -16 -15 -32 -15 -35 -1 -23 -14 -65
-22 -65 -5 0 -7 -4 -3 -9 3 -5 1 -12 -4 -16 -6 -3 -8 -12 -5 -19 3 -7 -1 -20
-8 -27 -7 -8 -14 -19 -15 -24 -1 -6 -11 -34 -22 -62 -10 -29 -16 -53 -13 -53
4 0 2 -4 -4 -8 -6 -4 -24 -45 -40 -92 -16 -47 -33 -88 -37 -91 -5 -3 -8 -9 -8
-13 1 -16 -12 -66 -18 -66 -9 0 -41 -66 -41 -85 0 -7 -8 -21 -17 -31 -10 -10
-17 -20 -15 -23 3 -6 -39 -102 -48 -111 -3 -3 -14 -24 -25 -48 -10 -24 -23
-46 -29 -50 -15 -9 -40 -64 -37 -79 1 -7 -3 -13 -9 -13 -5 0 -10 -9 -10 -20 0
-11 -4 -20 -9 -20 -5 0 -14 -13 -21 -30 -7 -16 -17 -30 -22 -30 -5 0 -6 -4 -3
-10 3 -5 2 -10 -3 -10 -6 0 -15 -12 -21 -27 -12 -29 -42 -84 -51 -93 -3 -3
-11 -17 -19 -32 -8 -16 -18 -28 -23 -28 -4 0 -8 -5 -8 -10 0 -19 -87 -140 -94
-132 -4 4 -7 3 -5 -3 3 -13 -18 -63 -34 -80 -29 -33 -37 -45 -32 -45 4 0 0 -7
-7 -15 -24 -27 -34 -40 -45 -60 -19 -34 -266 -295 -280 -295 -8 0 -43 -41 -43
-52 0 -4 -9 -8 -19 -8 -11 0 -21 -4 -23 -8 -4 -12 -95 -72 -107 -72 -6 0 -11
-4 -11 -10 0 -5 -7 -10 -16 -10 -15 0 -81 -35 -94 -50 -9 -10 -73 -15 -177
-13 -91 2 -107 5 -140 27 -20 14 -40 23 -45 20 -4 -3 -8 -1 -8 5 0 5 -18 20
-40 32 -22 12 -38 24 -36 27 3 2 -9 17 -25 33 -28 28 -97 151 -104 188 -2 9
-8 27 -13 41 -5 14 -10 27 -11 30 0 3 -12 38 -25 78 -14 39 -23 72 -21 72 2 0
-6 24 -17 53 -11 28 -22 69 -24 90 -2 21 -9 47 -14 58 -6 10 -8 19 -6 19 3 0
2 10 -3 23 -5 13 -12 54 -16 93 -3 38 -10 71 -15 74 -4 3 -7 16 -7 30 0 14 -2
43 -6 65 -4 22 -9 80 -12 128 -3 49 -7 93 -10 98 -3 4 -8 59 -10 121 -3 62 -7
129 -10 148 -8 48 -17 324 -17 505 -1 230 12 1280 16 1365 2 41 7 174 10 295
4 121 9 240 13 265 8 68 11 790 2 830 -4 19 -10 62 -13 95 -3 33 -8 71 -11 85
-3 14 -8 48 -11 75 -2 28 -12 77 -20 110 -9 33 -18 71 -20 85 -8 41 -21 91
-42 163 -12 37 -19 67 -16 67 2 0 -2 14 -11 30 -9 17 -13 30 -10 30 3 0 -4 18
-15 40 -11 22 -17 40 -13 40 5 0 2 4 -5 9 -7 4 -14 24 -15 43 -1 20 -5 34 -9
31 -5 -2 -8 0 -8 6 0 16 -63 78 -101 99 -53 29 -162 41 -254 27 -76 -11 -78
-11 -105 -22 -14 -6 -31 -9 -39 -8 -14 2 -33 -11 -66 -42 -8 -7 -17 -13 -22
-13 -9 0 -118 -101 -118 -110 -1 -10 -59 -105 -70 -112 -5 -4 -6 -8 -2 -8 5 0
0 -15 -9 -32 -30 -59 -34 -68 -34 -83 0 -8 -4 -15 -8 -15 -11 0 -31 -38 -36
-66 -3 -12 -14 -40 -25 -62 -11 -22 -17 -42 -14 -46 3 -3 2 -11 -3 -18 -6 -7
-16 -31 -23 -53 -7 -22 -16 -49 -21 -60 -17 -40 -30 -89 -30 -111 0 -13 -4
-24 -9 -24 -8 0 -17 -25 -26 -70 0 -3 -7 -28 -14 -56 -7 -29 -13 -58 -14 -65
-2 -8 -6 -19 -10 -25 -4 -7 -9 -27 -11 -45 -3 -19 -9 -53 -14 -76 -5 -23 -8
-44 -5 -47 3 -2 0 -13 -6 -24 -6 -11 -13 -40 -15 -64 -3 -23 -9 -61 -13 -83
-5 -22 -8 -50 -7 -62 1 -13 -2 -23 -6 -23 -8 0 -9 -6 -11 -90 -1 -36 -5 -69
-9 -75 -10 -13 -29 -173 -35 -295 -3 -52 -8 -108 -11 -125 -3 -16 -7 -167 -9
-333 l-4 -304 -45 -94 c-25 -52 -46 -101 -46 -109 0 -8 -4 -15 -9 -15 -5 0
-21 -26 -37 -57 -15 -32 -30 -60 -34 -63 -4 -3 -10 -17 -13 -32 -4 -15 -14
-34 -23 -42 -8 -9 -13 -16 -9 -16 3 0 -2 -12 -13 -27 -10 -16 -22 -40 -26 -55
-3 -16 -12 -28 -19 -28 -7 0 -13 -9 -14 -20 -1 -11 -11 -33 -22 -49 -12 -16
-21 -34 -21 -40 0 -6 -4 -11 -8 -11 -5 0 -14 -18 -21 -40 -6 -22 -16 -40 -20
-40 -5 0 -14 -13 -21 -30 -7 -16 -17 -30 -22 -30 -5 0 -6 -4 -3 -10 3 -5 2
-10 -2 -10 -5 0 -17 -18 -27 -40 -10 -22 -21 -40 -25 -40 -4 0 -8 -6 -8 -13 0
-11 -49 -94 -63 -107 -4 -3 -12 -19 -19 -36 -7 -18 -21 -41 -32 -53 -11 -12
-17 -21 -14 -21 4 0 0 -7 -7 -15 -23 -26 -33 -40 -36 -55 -2 -8 -9 -18 -15
-22 -7 -4 -8 -8 -4 -8 4 0 -2 -10 -14 -22 -12 -13 -28 -38 -35 -55 -8 -18 -18
-33 -23 -33 -5 0 -14 -14 -21 -31 -7 -17 -19 -37 -27 -44 -7 -8 -38 -50 -67
-95 -29 -44 -56 -77 -60 -73 -4 4 -9 -3 -13 -15 -3 -12 -9 -22 -14 -22 -5 0
-8 -4 -7 -9 3 -9 -13 -36 -42 -71 -8 -10 -22 -28 -30 -40 -8 -13 -25 -33 -37
-46 -13 -13 -23 -27 -23 -31 0 -8 -38 -56 -87 -109 -12 -13 -19 -24 -16 -24 3
0 -5 -10 -18 -23 -13 -12 -37 -40 -54 -62 -16 -22 -40 -50 -52 -63 -13 -13
-23 -27 -23 -32 0 -6 -7 -10 -15 -10 -8 0 -15 -4 -15 -10 0 -5 -12 -22 -28
-38 -15 -16 -46 -50 -70 -76 -23 -26 -47 -44 -52 -41 -6 3 -10 -1 -10 -9 0
-16 -146 -166 -220 -226 -24 -19 -54 -45 -67 -57 -13 -12 -23 -19 -23 -16 0 3
-8 -1 -17 -9 -10 -9 -34 -25 -54 -36 -20 -11 -47 -26 -60 -34 -13 -7 -28 -19
-32 -26 -5 -7 -12 -10 -18 -7 -5 4 -9 1 -9 -4 0 -6 -7 -11 -15 -11 -8 0 -30
-9 -50 -20 -20 -11 -44 -20 -54 -20 -11 0 -21 -4 -23 -9 -1 -5 -19 -10 -38
-12 -19 -2 -41 -7 -48 -13 -19 -14 -224 -17 -240 -4 -7 6 -27 13 -44 15 -16 2
-44 13 -61 25 -37 24 -135 123 -157 157 -8 13 -23 32 -33 43 -9 12 -17 25 -17
29 0 4 -7 15 -16 23 -9 9 -17 23 -18 30 -1 8 -7 20 -12 27 -18 24 -66 121 -70
143 -2 11 -8 22 -14 24 -5 2 -10 10 -10 18 0 8 -9 33 -20 54 -11 22 -18 40
-15 40 3 0 1 9 -5 21 -6 11 -13 29 -16 40 -2 10 -6 28 -8 38 -3 11 -9 28 -15
39 -6 11 -13 32 -16 48 -3 16 -12 54 -21 84 -9 30 -17 67 -19 81 -2 15 -6 36
-10 48 -3 11 -8 39 -10 61 -3 22 -8 48 -13 58 -5 9 -10 40 -12 67 -3 59 -8 99
-10 103 -5 6 -23 130 -25 172 -1 14 -4 41 -8 60 -14 83 -28 191 -32 265 -3 44
-8 88 -11 97 -3 9 -7 59 -9 110 -2 51 -7 118 -11 148 -10 76 -10 720 0 855 5
61 10 131 11 156 1 25 6 60 10 78 4 18 8 50 10 70 3 31 13 94 40 246 3 17 10
45 15 64 5 19 7 38 4 42 -3 5 0 17 5 27 5 10 12 29 14 43 15 85 20 109 26 109
4 0 7 8 7 18 1 20 10 78 22 145 5 26 8 47 5 47 -2 0 1 9 7 19 5 11 12 35 15
53 2 18 11 65 20 103 9 39 18 81 20 95 2 14 7 39 10 55 10 45 20 100 30 165 4
24 8 47 10 50 1 3 6 25 9 50 3 25 8 55 10 68 3 12 7 48 10 80 4 31 9 77 12
102 12 88 10 344 -3 408 -15 72 -51 162 -65 162 -5 0 -7 4 -4 9 12 18 -122
139 -137 124 -4 -3 -9 1 -12 9 -8 21 -294 24 -389 4 -38 -8 -74 -12 -79 -9 -6
3 -7 1 -3 -5 6 -10 -34 -18 -66 -13 -5 0 -8 -3 -8 -8 0 -5 -14 -11 -31 -15
-55 -11 -254 -105 -286 -135 -12 -12 -27 -21 -33 -21 -5 0 -10 -4 -10 -10 0
-5 -5 -10 -11 -10 -6 0 -17 -7 -26 -15 -8 -8 -19 -13 -24 -9 -5 3 -8 0 -7 -8
2 -7 -3 -12 -10 -10 -6 1 -11 -3 -10 -10 2 -6 -7 -17 -20 -23 -13 -7 -23 -16
-23 -21 0 -5 -7 -18 -17 -30 -32 -39 -62 -83 -62 -93 0 -6 -8 -15 -18 -20 -9
-6 -14 -11 -9 -11 8 0 -43 -83 -55 -88 -4 -2 -4 -10 -1 -19 4 -11 2 -14 -5 -9
-11 6 -17 -5 -13 -26 0 -5 -3 -8 -9 -8 -5 0 -10 -8 -10 -19 0 -10 -7 -24 -15
-31 -8 -7 -17 -28 -21 -47 -4 -19 -13 -37 -20 -40 -8 -3 -14 -15 -14 -27 0
-12 -5 -27 -12 -34 -7 -7 -9 -12 -5 -12 4 0 1 -13 -8 -30 -9 -16 -12 -30 -8
-30 5 0 3 -4 -4 -8 -6 -4 -14 -19 -16 -32 -2 -14 -9 -38 -16 -55 -7 -16 -14
-37 -17 -45 -2 -8 -12 -49 -23 -90 -12 -41 -21 -90 -21 -107 0 -18 -4 -33 -9
-33 -9 0 -29 -92 -35 -161 -2 -26 -6 -52 -10 -57 -4 -6 -7 -28 -7 -49 -1 -21
-5 -52 -10 -68 -5 -17 -11 -63 -13 -103 -3 -39 -7 -75 -9 -79 -3 -5 -8 -37
-12 -73 -3 -36 -8 -76 -10 -90 -2 -14 -7 -56 -9 -95 -14 -173 -18 -210 -27
-213 -12 -5 -12 -1342 0 -1342 8 0 15 -45 27 -160 2 -25 7 -56 11 -70 9 -38
10 -40 18 -110 8 -74 7 -68 30 -178 9 -46 18 -96 20 -110 2 -15 8 -49 14 -77
5 -27 7 -53 5 -57 -3 -5 1 -10 8 -13 7 -3 14 -22 15 -42 1 -20 5 -43 9 -52 4
-9 8 -23 9 -31 8 -57 17 -99 25 -126 12 -34 20 -68 25 -99 2 -11 4 -20 5 -20
1 0 3 -7 5 -15 2 -8 13 -49 25 -90 11 -41 22 -88 26 -105 3 -16 12 -38 21 -47
9 -10 13 -18 10 -18 -6 0 56 -180 70 -202 4 -7 8 -15 8 -18 2 -16 41 -113 66
-161 16 -31 26 -59 22 -63 -3 -3 0 -6 7 -6 7 0 10 -3 7 -6 -4 -4 2 -19 13 -34
11 -15 17 -30 13 -34 -3 -3 -2 -6 4 -6 11 0 40 -59 35 -72 -1 -5 2 -8 6 -8 5
0 19 -22 32 -50 13 -27 27 -50 31 -50 7 0 22 -39 20 -52 -1 -5 3 -8 8 -8 5 0
14 -15 22 -32 7 -18 25 -46 41 -62 15 -17 28 -33 28 -38 0 -17 4 -24 27 -41
13 -10 23 -23 23 -28 0 -8 26 -42 57 -74 7 -7 10 -15 7 -17 -2 -3 43 -53 100
-111 57 -58 101 -109 97 -112 -3 -4 -1 -5 4 -3 10 3 36 -18 122 -97 65 -60 73
-66 73 -59 0 4 8 0 18 -8 27 -23 92 -58 108 -58 8 0 14 -4 14 -10 0 -5 11 -10
25 -10 16 0 25 -6 25 -16 0 -8 5 -12 10 -9 6 4 16 2 23 -3 7 -5 23 -12 37 -16
72 -21 98 -27 125 -32 17 -3 45 -9 64 -14 43 -12 373 -12 426 0 22 4 58 10 80
13 59 7 174 36 214 54 20 9 42 17 50 19 7 1 18 7 24 13 6 6 19 11 29 11 10 0
26 4 36 9 54 30 197 94 208 94 8 0 12 3 9 5 -6 6 35 35 80 57 17 8 43 26 59
40 16 13 37 27 47 30 11 4 19 11 19 16 0 5 9 9 19 9 11 0 23 9 26 20 3 11 13
20 21 20 8 0 14 4 14 8 0 4 15 16 33 26 17 11 49 37 70 58 20 21 37 36 37 33
0 -3 6 0 14 7 8 7 12 16 9 21 -2 4 1 7 8 7 6 0 25 14 41 30 15 17 33 30 39 30
5 0 7 5 4 10 -3 6 1 10 9 10 9 0 16 4 16 10 0 5 17 21 37 35 21 14 34 25 30
25 -5 0 6 12 25 27 18 15 36 32 39 37 4 5 12 5 18 2 6 -4 11 -4 10 1 -5 20 15
42 42 48 28 6 33 14 30 43 -1 6 5 12 14 12 9 0 18 7 22 16 6 15 38 52 149 169
23 24 39 46 36 49 -3 4 2 6 11 6 10 0 17 3 17 8 0 4 17 26 38 48 20 23 48 56
62 73 14 17 37 45 52 62 16 17 26 35 23 39 -3 5 4 11 15 15 11 3 20 10 20 14
0 4 15 24 33 44 57 64 76 87 71 87 -3 0 5 10 17 23 11 12 33 38 47 57 15 19
29 37 32 40 3 3 28 35 54 72 27 37 54 64 59 61 6 -3 7 -1 3 5 -4 7 -2 12 4 12
6 0 8 5 5 10 -3 6 -1 10 4 10 6 0 11 6 11 13 0 7 9 23 20 35 11 12 20 26 20
31 0 6 8 15 18 20 9 6 13 11 9 11 -4 0 1 10 13 22 11 12 20 28 20 35 0 8 5 11
10 8 6 -3 10 1 10 9 0 9 4 16 9 16 5 0 14 13 20 28 7 15 23 40 37 55 14 15 22
27 19 27 -3 0 -1 6 5 13 40 47 50 62 50 74 0 7 5 13 10 13 6 0 10 7 10 15 0 8
4 15 9 15 5 0 14 14 21 31 7 17 18 36 25 42 6 7 30 44 53 82 23 39 45 75 50
81 5 5 14 20 21 32 17 31 38 17 38 -26 1 -20 4 -50 7 -67 14 -63 29 -151 31
-180 1 -16 5 -37 8 -45 8 -22 28 -110 34 -145 2 -16 11 -57 19 -90 9 -33 18
-71 20 -84 3 -14 7 -29 10 -33 3 -5 8 -24 11 -41 3 -18 10 -38 15 -44 6 -7 8
-13 4 -13 -3 0 0 -17 8 -37 21 -56 49 -153 49 -169 0 -8 6 -14 14 -14 7 0 13
-10 13 -23 0 -12 11 -53 25 -91 14 -37 22 -72 19 -77 -3 -5 -1 -9 5 -9 6 0 14
-12 17 -27 4 -16 18 -49 31 -75 13 -27 23 -50 24 -53 1 -18 23 -65 30 -65 5 0
9 -13 9 -30 0 -16 5 -30 10 -30 6 0 10 -9 10 -20 0 -11 5 -20 10 -20 6 0 10
-7 10 -16 0 -9 8 -28 18 -42 16 -23 29 -48 37 -72 9 -26 22 -49 40 -67 37 -40
44 -51 38 -57 -4 -3 -1 -6 5 -6 6 0 14 -9 17 -20 4 -12 22 -36 40 -54 19 -19
31 -37 28 -40 -4 -3 -1 -6 5 -6 6 0 14 -9 17 -20 3 -11 12 -20 20 -20 8 0 17
-9 20 -20 3 -11 10 -20 15 -20 4 0 31 -23 59 -50 28 -28 55 -50 61 -50 5 0 14
-9 20 -20 6 -11 16 -20 23 -20 7 0 19 -9 27 -20 8 -11 20 -20 26 -20 7 0 14
-3 16 -7 4 -11 87 -53 103 -53 7 0 15 -3 17 -7 6 -15 95 -53 122 -53 15 0 36
-5 47 -11 23 -12 29 -14 114 -33 87 -20 446 -14 496 7 20 9 48 18 62 21 14 2
41 11 59 19 18 9 44 18 58 22 35 10 174 78 178 87 2 4 12 8 23 8 10 0 19 5 19
10 0 6 7 10 15 10 8 0 15 3 15 8 0 4 13 13 28 20 16 6 38 21 50 32 12 11 24
20 27 20 25 0 150 106 283 240 47 47 89 84 94 82 5 -1 7 1 4 6 -3 5 12 29 34
53 22 24 45 56 51 72 6 15 15 27 19 27 4 0 27 30 51 68 24 37 51 74 61 83 10
9 18 21 18 26 0 6 7 16 15 23 8 7 13 16 10 20 -2 4 5 16 15 28 11 12 20 27 20
34 1 17 25 49 33 43 4 -3 5 -2 2 1 -6 10 107 224 115 219 5 -3 6 4 3 15 -3 11
0 20 6 20 6 0 11 5 11 12 0 6 12 36 27 67 15 31 27 58 28 61 0 3 6 15 13 28 7
12 10 22 7 22 -4 0 1 7 9 16 9 8 14 20 11 25 -4 5 -2 9 3 9 9 0 35 58 31 69 0
2 3 7 8 10 7 5 31 61 36 86 1 5 7 15 14 23 7 7 10 19 7 27 -4 8 1 18 10 21 9
3 16 12 16 19 0 7 8 30 17 51 9 22 18 47 20 58 2 10 16 48 32 85 16 36 37 91
46 121 10 30 27 73 39 95 11 22 21 44 21 50 3 32 19 85 26 85 5 0 8 3 7 8 -2
9 13 63 21 77 3 6 6 15 6 20 0 9 28 99 42 135 3 8 8 26 10 40 2 13 9 30 15 37
5 7 14 27 18 45 5 18 34 105 65 193 32 88 60 172 62 188 3 15 9 27 14 27 5 0
9 9 9 19 0 11 4 22 9 25 4 3 11 19 14 36 l7 30 127 0 c71 0 143 4 160 9 18 5
54 11 80 12 27 1 55 6 64 10 9 5 32 9 50 11 19 1 39 5 45 10 6 4 24 9 40 10
16 1 37 8 46 16 9 8 22 11 29 6 8 -4 10 -3 5 4 -5 8 0 12 13 12 12 0 21 4 21
9 0 5 16 12 35 15 19 4 35 11 35 16 0 6 6 10 13 10 14 0 88 37 130 64 15 10
27 14 27 10 0 -5 4 -4 8 3 4 6 14 13 21 15 13 3 36 18 65 43 6 6 22 16 36 23
14 7 45 31 70 53 24 21 48 39 53 39 4 0 19 11 33 25 14 14 29 25 34 25 19 0 6
-94 -24 -175 -6 -16 -11 -34 -13 -40 -1 -5 -4 -21 -8 -35 -3 -14 -7 -36 -10
-50 -3 -14 -12 -52 -21 -85 -22 -86 -34 -146 -37 -180 -2 -17 -7 -36 -11 -44
-5 -7 -10 -29 -12 -49 -2 -21 -10 -77 -18 -127 -9 -49 -17 -108 -20 -130 -2
-22 -9 -56 -16 -75 -6 -19 -13 -64 -15 -100 -6 -87 -11 -146 -24 -265 -24
-230 -33 -660 -17 -780 4 -27 9 -76 11 -109 2 -32 7 -67 10 -77 4 -11 8 -41
10 -67 4 -60 17 -114 55 -232 37 -114 52 -150 62 -150 5 0 8 -9 8 -20 0 -11 4
-20 9 -20 8 0 23 -33 30 -62 1 -4 11 -18 24 -31 12 -13 33 -39 47 -58 14 -18
33 -40 43 -48 9 -9 17 -22 17 -30 0 -8 3 -12 6 -8 6 6 19 -2 62 -42 30 -28
127 -81 148 -81 8 0 14 -4 14 -9 0 -11 55 -31 86 -31 13 0 24 -4 24 -8 0 -4
12 -9 28 -10 15 -1 28 -6 29 -10 4 -10 277 -5 338 7 28 5 72 14 98 20 27 6 53
8 59 5 6 -4 8 -3 5 3 -3 5 11 15 31 22 36 12 57 20 105 41 12 5 29 11 37 12 8
2 18 7 21 11 3 4 16 9 27 10 12 1 22 5 22 9 0 4 6 8 14 8 7 0 19 7 26 15 7 8
16 13 20 10 5 -3 10 -1 12 4 1 5 12 11 23 13 10 1 27 10 36 19 9 9 30 22 47
30 18 8 32 17 32 21 0 5 9 8 19 8 11 0 21 4 23 8 2 5 53 42 113 82 61 40 111
77 113 82 2 4 9 8 16 8 7 0 21 9 31 20 10 11 25 20 32 20 8 0 32 18 53 40 21
22 42 40 47 40 4 0 24 15 44 33 60 52 79 67 87 67 4 0 14 9 22 20 8 11 19 20
24 20 5 0 22 14 38 30 15 17 30 30 33 30 7 0 42 29 81 68 18 17 37 32 41 32 5
0 15 8 24 18 8 9 41 40 73 67 33 28 76 66 96 85 20 19 56 51 80 70 24 19 53
46 64 59 12 13 29 31 39 40 11 9 40 35 65 59 25 23 49 42 54 42 4 0 8 4 8 9 0
15 136 148 159 156 12 3 21 11 21 17 0 14 111 132 128 136 6 2 12 9 12 16 0 8
20 32 45 55 24 22 42 41 39 41 -3 0 1 7 10 15 8 8 19 15 25 15 5 0 13 9 16 20
3 11 11 20 16 20 6 0 7 5 4 10 -3 6 1 10 9 10 9 0 16 3 16 8 0 4 35 44 78 88
42 45 84 91 92 103 8 11 21 21 29 21 8 0 12 3 8 6 -3 3 7 20 23 38 17 17 30
37 30 44 0 6 6 12 13 12 6 0 23 14 37 31 14 17 41 48 60 70 56 62 61 69 53 69
-4 0 6 9 22 20 17 11 26 20 22 20 -9 0 5 19 51 66 19 19 31 34 28 34 -3 0 11
18 31 40 20 21 41 36 46 33 6 -4 7 -1 2 7 -5 8 -1 18 10 27 11 7 16 13 12 13
-7 0 28 44 75 92 14 15 24 28 20 28 -3 0 3 8 14 19 28 27 55 61 48 61 -3 0 1
6 8 14 14 16 28 34 112 146 30 41 59 80 63 85 5 6 16 22 25 36 9 14 23 33 30
40 21 23 58 78 58 86 0 4 11 21 25 37 13 16 22 33 19 37 -3 5 -1 9 4 9 5 0 15
13 22 29 12 29 36 47 43 33 2 -4 5 -70 6 -147 1 -77 4 -185 6 -240 3 -55 8
-219 11 -365 3 -146 7 -305 10 -355 7 -175 8 -2221 0 -2264 -7 -43 -28 -76
-40 -64 -3 4 -6 1 -6 -6 0 -7 -4 -9 -10 -6 -5 3 -10 1 -10 -4 0 -6 -7 -11 -15
-11 -8 0 -15 -4 -15 -10 0 -5 -7 -10 -15 -10 -8 0 -15 -3 -15 -7 0 -5 -10 -13
-23 -19 -69 -35 -89 -48 -94 -60 -3 -8 -11 -14 -19 -14 -8 0 -14 -3 -14 -8 0
-4 -12 -13 -27 -20 -25 -11 -146 -96 -196 -137 -9 -8 -19 -15 -22 -15 -3 0
-13 -6 -22 -14 -43 -35 -141 -106 -147 -106 -4 0 -18 -11 -32 -25 -14 -14 -38
-32 -54 -40 -17 -9 -30 -19 -30 -23 0 -4 -13 -16 -30 -25 -16 -10 -30 -15 -30
-12 0 3 -18 -11 -40 -32 -62 -60 -90 -83 -100 -83 -6 0 -10 -4 -10 -10 0 -5
-5 -10 -10 -10 -6 0 -23 -11 -37 -24 -15 -14 -31 -22 -36 -19 -6 3 -7 1 -3 -5
4 -7 4 -12 -1 -12 -7 0 -38 -23 -101 -77 -15 -13 -33 -23 -40 -23 -7 0 -11 -4
-7 -9 3 -5 -4 -12 -15 -16 -11 -4 -28 -17 -36 -31 -9 -13 -20 -24 -26 -24 -5
0 -21 -11 -35 -24 -15 -14 -30 -23 -34 -20 -4 2 -10 -5 -14 -16 -3 -11 -12
-20 -18 -20 -7 0 -19 -9 -27 -20 -8 -11 -19 -20 -24 -20 -5 0 -19 -10 -31 -22
-42 -42 -85 -78 -94 -78 -6 0 -13 -9 -16 -20 -3 -11 -12 -20 -18 -20 -7 0 -26
-14 -44 -30 -18 -17 -36 -30 -40 -30 -5 0 -14 -9 -21 -20 -7 -11 -20 -20 -29
-20 -9 0 -14 -3 -11 -6 4 -3 -12 -22 -35 -42 -23 -20 -54 -49 -68 -64 -15 -16
-33 -28 -40 -28 -7 0 -9 -3 -6 -7 4 -3 -4 -14 -17 -22 -25 -17 -90 -77 -114
-106 -7 -8 -17 -13 -23 -10 -5 4 -9 2 -9 -3 0 -10 -78 -92 -88 -92 -4 0 -16
-14 -27 -30 -11 -16 -23 -30 -27 -30 -11 0 -156 -149 -150 -155 3 -3 -2 -5
-11 -5 -8 0 -19 -9 -22 -20 -3 -11 -11 -20 -16 -20 -5 0 -31 -24 -59 -52 -27
-29 -79 -83 -114 -119 -36 -36 -81 -85 -102 -110 -20 -24 -39 -43 -41 -41 -2
2 -14 -9 -26 -24 -12 -15 -35 -42 -52 -60 -16 -18 -35 -38 -40 -46 -26 -34
-102 -125 -115 -138 -9 -8 -31 -35 -50 -60 -39 -51 -51 -61 -62 -54 -4 3 -8
-3 -8 -14 0 -10 -9 -30 -20 -43 -11 -13 -32 -37 -46 -54 -36 -43 -40 -48 -54
-75 -7 -13 -22 -34 -34 -46 -33 -36 -46 -53 -46 -59 0 -11 -27 -34 -34 -30 -3
3 -4 2 -1 -1 4 -6 -32 -59 -67 -98 -10 -11 -20 -28 -24 -38 -3 -10 -10 -18
-15 -18 -6 0 -7 -4 -4 -10 3 -5 1 -10 -4 -10 -6 0 -11 -7 -11 -15 0 -7 -6 -18
-13 -22 -7 -4 -27 -30 -45 -58 -17 -27 -36 -55 -41 -61 -5 -6 -18 -29 -29 -50
-11 -21 -31 -50 -44 -64 -12 -13 -21 -25 -18 -25 7 0 -34 -65 -42 -65 -4 0 -8
-7 -8 -16 0 -9 -11 -27 -24 -39 -14 -13 -23 -25 -20 -28 5 -5 -42 -89 -77
-139 -11 -14 -19 -33 -19 -42 0 -9 -4 -16 -10 -16 -5 0 -10 -9 -10 -20 0 -11
-4 -20 -10 -20 -5 0 -10 -7 -10 -15 0 -8 -4 -15 -10 -15 -5 0 -10 -7 -10 -15
0 -9 -12 -34 -27 -58 -14 -23 -26 -44 -26 -47 1 -11 -41 -90 -48 -90 -4 0 -10
-18 -14 -40 -4 -22 -11 -40 -16 -40 -5 0 -9 -9 -9 -20 0 -11 -5 -20 -11 -20
-5 0 -7 -4 -4 -10 3 -5 1 -10 -6 -10 -7 0 -10 -3 -6 -6 3 -4 0 -19 -9 -35 -8
-16 -14 -30 -13 -31 4 -6 -44 -128 -50 -128 -4 0 -8 -11 -9 -26 -1 -14 -7 -34
-13 -45 -14 -26 -21 -58 -20 -87 0 -12 -3 -22 -8 -22 -4 0 -14 -26 -21 -58 -7
-31 -16 -61 -19 -67 -3 -5 -7 -21 -9 -35 -1 -14 -8 -41 -14 -60 -7 -19 -12
-42 -13 -50 -12 -100 -22 -157 -30 -170 -3 -5 -8 -40 -10 -77 -3 -37 -7 -79
-10 -93 -11 -43 -13 -492 -3 -560 5 -36 11 -85 12 -110 4 -47 17 -121 44 -250
9 -41 17 -82 19 -90 6 -40 32 -129 46 -160 34 -78 48 -115 45 -121 -2 -4 5
-15 14 -25 9 -11 18 -26 20 -34 2 -8 5 -17 8 -20 12 -12 51 -90 45 -90 -4 0 0
-7 7 -15 31 -34 38 -45 38 -57 0 -7 9 -19 20 -26 11 -7 20 -18 20 -25 0 -6 20
-34 45 -62 24 -27 41 -53 39 -57 -3 -5 -2 -7 3 -6 13 4 83 -69 75 -78 -4 -4
-2 -4 5 0 6 3 23 -5 37 -19 14 -14 30 -25 36 -25 5 0 10 -4 10 -9 0 -4 23 -23
52 -42 127 -83 161 -103 182 -106 10 -2 24 -10 30 -18 6 -9 20 -17 32 -19 40
-8 109 -28 126 -37 10 -5 27 -9 38 -9 11 0 20 -4 20 -10 0 -6 125 -10 355 -10
195 0 355 4 355 9 0 8 62 29 102 35 10 1 21 5 24 9 4 4 16 7 26 7 11 0 53 11
94 25 42 14 80 22 86 19 6 -4 8 -3 5 3 -7 11 34 33 62 33 10 0 24 7 31 15 7 9
15 14 17 11 3 -2 29 9 60 25 30 16 63 29 72 29 10 0 27 9 39 20 12 11 28 20
36 20 8 0 16 3 18 8 7 16 116 65 128 57 8 -5 11 -4 7 2 -6 9 43 53 59 53 4 0
14 8 23 17 9 10 26 24 39 31 66 36 88 51 117 79 8 7 18 13 23 13 6 0 29 16 52
35 23 19 46 35 51 35 5 0 9 8 9 17 0 9 3 14 6 10 4 -3 22 9 40 28 19 19 36 35
39 35 5 0 22 15 123 107 25 23 48 40 52 38 3 -2 17 14 30 36 14 21 28 39 33
39 4 0 29 23 55 52 26 28 55 58 65 67 9 8 17 21 17 28 0 7 5 13 11 13 6 0 17
7 25 15 9 8 12 15 8 15 -4 0 12 18 35 41 23 22 55 60 71 82 57 79 75 102 107
134 18 18 30 33 27 33 -3 0 15 27 38 61 113 159 146 209 142 209 -3 0 1 7 8
15 29 32 38 45 38 53 0 4 9 18 20 30 11 12 20 23 19 24 -2 2 10 23 26 48 16
25 34 54 40 65 51 93 79 135 88 135 6 0 8 3 4 6 -8 8 19 60 44 87 10 12 19 26
19 32 0 5 18 40 39 77 21 37 36 69 33 72 -3 3 0 6 7 6 7 0 10 4 6 9 -3 5 -1
12 3 15 11 7 147 279 144 289 -1 4 2 7 8 7 5 0 10 6 10 13 0 13 33 84 55 117
5 8 10 17 10 20 0 5 68 174 90 225 7 17 21 50 31 75 9 25 21 50 25 55 4 6 10
22 13 35 7 38 17 60 28 60 5 0 6 5 3 10 -3 6 -2 10 4 10 6 0 8 6 5 14 -3 8 2
28 11 45 8 17 13 31 10 31 -3 0 3 17 14 38 10 20 19 40 20 45 2 13 6 27 13 47
4 8 12 36 19 63 7 26 16 47 19 47 3 0 6 8 7 18 1 10 12 49 26 87 13 39 24 72
24 75 1 3 11 37 23 75 12 39 31 101 42 140 10 38 23 74 28 80 7 9 18 59 26
120 1 11 7 32 13 48 6 15 8 27 5 27 -4 0 -2 6 4 13 5 6 12 26 15 42 3 17 10
42 15 56 6 15 8 29 6 32 -3 3 0 15 6 27 6 12 13 31 16 43 2 12 11 51 20 86 9
36 18 73 20 84 2 10 6 28 10 39 3 11 8 30 10 41 8 53 24 119 32 135 5 9 8 24
7 32 -1 8 3 21 8 28 5 6 6 12 2 12 -4 0 -2 6 4 13 6 8 9 16 6 19 -3 2 1 25 8
49 8 25 13 53 11 62 -1 9 1 17 5 17 4 0 7 8 8 18 4 56 11 100 17 110 4 7 9 29
11 49 9 77 21 138 29 151 5 8 10 30 12 50 5 40 11 77 14 77 1 0 3 14 4 30 5
63 19 140 27 151 4 5 10 41 13 80 2 38 10 96 16 129 7 33 13 66 13 73 0 6 3
12 6 12 3 0 7 28 8 63 1 34 6 80 11 102 9 35 14 78 27 230 2 17 7 50 13 75 11
48 22 150 27 240 2 30 6 75 10 100 4 25 9 65 10 90 1 25 5 62 10 82 4 21 8 63
10 95 3 61 14 199 20 246 4 33 22 57 41 57 8 0 14 5 14 10 0 6 6 10 13 10 8 0
40 17 73 38 32 20 73 44 89 52 17 8 32 17 35 20 3 3 19 12 35 20 17 8 42 23
57 33 15 10 38 20 50 22 13 3 24 9 26 15 2 5 20 18 40 27 20 9 43 23 50 30 8
7 17 11 22 8 4 -3 13 2 20 10 7 8 16 12 21 9 5 -3 9 0 9 5 0 6 7 11 15 11 8 0
15 3 15 8 0 4 15 14 33 21 17 8 62 32 99 53 36 20 72 39 80 40 7 2 15 6 18 9
5 7 50 33 122 72 21 12 38 24 38 29 0 4 9 8 20 8 11 0 20 5 20 10 0 6 3 9 8 8
8 -2 105 43 112 53 3 3 16 10 29 14 13 4 54 26 90 50 36 23 77 46 91 50 14 4
39 18 57 31 17 13 39 24 48 24 9 0 13 5 10 10 -3 6 3 10 15 10 12 0 40 13 63
28 23 16 74 43 112 62 39 18 72 36 75 40 3 3 28 17 55 30 28 13 52 26 55 30
10 12 150 80 150 72 0 -4 4 -2 8 5 12 19 143 85 158 79 8 -3 14 1 14 9 0 8 4
15 9 15 5 0 33 16 62 35 30 19 61 35 70 35 10 0 19 4 21 8 4 10 108 62 124 62
7 0 17 6 21 13 11 16 67 47 87 47 9 0 16 4 16 9 0 5 36 26 80 47 44 22 80 42
80 47 0 4 9 7 20 7 11 0 20 3 20 8 0 8 61 38 73 34 4 -1 7 3 7 9 0 5 4 8 9 5
5 -3 14 1 21 9 7 8 19 15 26 15 8 0 14 3 14 8 0 4 34 22 75 41 41 19 75 38 75
43 0 4 9 8 20 8 11 0 20 4 20 8 0 5 16 14 35 22 19 8 35 17 35 22 0 4 8 8 18
8 10 0 28 7 40 16 12 8 22 12 22 7 0 -4 4 -3 8 2 12 17 89 55 96 48 3 -3 6 1
6 10 0 15 9 18 45 17 3 0 15 9 27 20 12 11 28 20 35 20 7 0 13 5 13 11 0 5 5
7 10 4 5 -3 10 -2 10 2 0 5 15 16 33 24 46 22 121 63 127 69 7 7 54 28 60 26
3 0 26 14 52 32 26 18 51 32 56 32 6 0 12 5 14 10 2 6 13 12 26 13 12 0 22 5
22 9 0 4 6 8 14 8 7 0 25 9 39 20 14 11 32 20 41 20 9 0 16 4 16 8 0 5 12 15
28 23 15 8 33 20 40 27 8 7 18 10 23 7 5 -4 9 -1 9 4 0 6 6 11 13 11 7 0 22 8
33 18 11 9 26 18 34 20 8 2 38 18 65 36 28 17 68 41 90 51 22 11 45 25 52 30
7 6 19 15 27 22 7 6 17 9 20 6 3 -4 6 -1 6 5 0 7 9 12 20 12 11 0 20 4 20 9 0
5 17 17 38 26 20 10 39 21 42 25 4 6 38 25 131 75 11 5 19 13 19 17 0 5 6 8
13 8 8 0 22 9 32 20 10 11 24 20 32 20 7 0 13 5 13 10 0 6 6 10 13 10 6 0 25
11 41 25 16 13 33 22 37 19 5 -3 9 -1 9 4 0 6 21 20 48 32 42 20 166 105 200
137 8 7 18 10 24 7 6 -4 8 -3 5 3 -4 5 6 16 21 24 15 8 34 22 43 31 9 10 19
18 23 18 9 0 29 16 115 93 17 15 35 27 40 27 5 0 13 9 16 20 3 11 12 20 19 20
16 0 306 287 306 304 0 3 16 23 35 43 19 20 35 40 35 44 0 5 13 23 50 67 6 6
8 12 5 12 -4 0 0 6 7 14 7 7 20 24 28 36 8 12 22 32 31 44 8 11 28 47 45 78
16 32 33 58 37 58 5 0 5 5 2 10 -3 6 -1 10 4 10 6 0 10 3 9 8 -1 4 11 34 26
67 32 68 48 108 46 114 -1 2 2 7 8 10 5 3 19 48 32 99 12 50 26 92 31 92 5 0
9 194 9 450 0 270 -4 450 -9 450 -9 0 -37 102 -32 116 2 4 -2 10 -9 14 -6 4
-13 13 -14 21 -9 46 -23 83 -59 154 -22 44 -43 82 -47 85 -4 3 -10 16 -13 30
-4 14 -18 37 -32 53 -14 15 -23 27 -20 27 4 0 0 6 -7 14 -7 7 -20 23 -28 36
-31 45 -67 87 -142 164 -43 44 -78 83 -78 88 0 4 -5 8 -10 8 -6 0 -24 14 -42
30 -17 17 -37 30 -44 30 -7 0 -16 9 -19 20 -4 11 -10 18 -15 15 -4 -3 -11 2
-14 11 -3 8 -10 12 -16 9 -5 -3 -21 5 -35 19 -14 15 -29 26 -33 26 -5 0 -29
14 -55 30 -26 17 -54 30 -62 30 -8 0 -18 6 -22 13 -11 18 -59 47 -78 47 -10 0
-13 5 -9 12 4 7 3 8 -5 4 -6 -4 -17 -3 -24 2 -7 5 -37 17 -67 27 -30 10 -59
21 -65 25 -11 7 -75 26 -115 34 -14 2 -43 9 -65 15 -82 21 -114 23 -265 21
-169 -2 -195 -4 -225 -13 -11 -3 -31 -8 -45 -11 -66 -12 -125 -28 -151 -41
-15 -8 -37 -15 -48 -15 -10 0 -21 -4 -23 -9 -1 -6 -14 -11 -28 -13 -14 -2 -40
-11 -59 -21 -19 -9 -40 -17 -47 -17 -7 0 -14 -4 -16 -10 -1 -5 -14 -11 -27
-13 -13 -2 -29 -11 -36 -20 -7 -9 -20 -17 -29 -17 -9 0 -16 -4 -16 -10 0 -5
-7 -10 -16 -10 -9 0 -27 -9 -41 -20 -14 -11 -32 -20 -39 -20 -8 0 -14 -4 -14
-10 0 -5 -5 -10 -10 -10 -6 0 -21 -9 -33 -20 -12 -12 -32 -23 -44 -26 -13 -4
-23 -12 -23 -20 0 -12 -19 -19 -43 -15 -5 1 -6 -2 -3 -7 2 -4 -6 -17 -20 -27
-14 -10 -34 -26 -44 -35 -10 -9 -31 -25 -45 -36 -25 -18 -74 -61 -140 -123
-16 -16 -40 -31 -52 -35 -11 -4 -24 -18 -27 -31 -4 -15 -16 -27 -31 -31 -14
-3 -22 -10 -19 -16 3 -5 -2 -17 -13 -26 -10 -9 -47 -51 -83 -92 -36 -41 -69
-80 -75 -86 -5 -6 -21 -26 -35 -44 -14 -18 -37 -47 -52 -64 -15 -17 -28 -34
-28 -37 0 -4 -13 -22 -30 -40 -16 -19 -30 -37 -30 -40 0 -3 -9 -17 -21 -30
-17 -19 -22 -21 -29 -9 -9 14 -14 36 -11 53 1 4 -6 21 -14 37 -9 17 -13 30
-10 30 3 0 -1 13 -10 30 -8 16 -15 33 -15 37 2 15 -43 103 -52 103 -5 0 -6 5
-3 10 3 6 2 10 -4 10 -6 0 -17 13 -26 30 -20 39 -72 89 -165 160 -18 14 -38
30 -44 35 -6 6 -19 11 -29 13 -10 2 -32 11 -50 21 -18 10 -49 19 -69 20 -48 3
-117 -41 -211 -136 -94 -94 -100 -102 -128 -156 -24 -47 -25 -48 -64 -43 -22
3 -59 9 -82 14 -24 5 -43 7 -43 4 0 -2 -6 0 -12 6 -7 5 -36 13 -64 17 -60 8
-282 9 -304 2 -8 -3 -44 -11 -80 -18 -36 -6 -73 -16 -82 -21 -9 -4 -28 -9 -42
-10 -15 -1 -26 -6 -26 -10 0 -4 -9 -8 -19 -8 -11 0 -23 -4 -26 -10 -3 -5 -14
-10 -23 -10 -9 0 -54 -18 -100 -40 -45 -22 -87 -41 -93 -43 -7 -1 -22 -12 -35
-25 -22 -21 -23 -28 -18 -95 3 -40 6 -78 6 -84 1 -7 4 -13 8 -13 4 0 19 -27
34 -60 15 -33 32 -60 37 -60 5 0 9 -6 9 -12 0 -13 32 -56 72 -95 12 -13 19
-23 15 -23 -4 0 3 -11 17 -25 14 -14 28 -25 31 -25 4 0 24 -18 46 -40 22 -22
44 -40 49 -40 5 0 11 -8 14 -18 3 -9 18 -23 34 -30 16 -6 38 -21 50 -32 12
-11 26 -20 32 -20 5 0 10 -4 10 -9 0 -5 16 -16 35 -25 19 -9 47 -27 62 -39 15
-12 40 -29 55 -36 15 -8 29 -21 31 -30 3 -16 -19 -71 -33 -81 -4 -3 -15 -21
-25 -40 -9 -19 -24 -43 -33 -52 -8 -10 -12 -18 -8 -18 3 0 -1 -14 -9 -30 -9
-17 -19 -28 -24 -26 -4 3 -8 0 -9 -7 -1 -18 -8 -39 -21 -72 -7 -16 -15 -39
-17 -49 -2 -11 -8 -22 -12 -25 -8 -5 -34 -83 -47 -136 -1 -5 -5 -18 -9 -27 -4
-9 -9 -22 -10 -30 -2 -7 -6 -20 -9 -28 -4 -8 -8 -26 -11 -40 -2 -14 -14 -67
-25 -118 -12 -51 -19 -98 -16 -103 4 -5 3 -9 -2 -9 -10 0 -12 -33 -16 -275 -1
-104 1 -210 6 -235 5 -25 10 -67 12 -95 3 -27 11 -79 20 -115 9 -36 18 -76 21
-90 3 -14 8 -32 11 -40 3 -8 8 -24 10 -35 11 -61 24 -83 54 -89 17 -3 35 -3
40 -1 10 7 49 12 139 21 72 6 93 9 130 18 14 3 39 8 55 10 17 3 47 9 67 14 20
6 39 7 42 4 4 -3 6 0 6 6 0 7 10 12 23 12 13 0 27 4 33 9 5 5 25 11 44 14 20
2 49 11 65 20 17 8 41 17 55 18 14 2 27 6 30 9 13 13 52 30 70 30 11 0 29 9
40 20 11 11 27 20 35 20 8 0 15 5 15 10 0 6 11 10 25 10 14 0 25 5 25 10 0 6
6 10 14 10 7 0 19 7 26 15 7 8 16 12 21 9 5 -3 9 0 9 5 0 6 5 11 11 11 7 0 19
8 28 18 9 10 31 25 49 33 17 7 32 17 32 21 0 5 7 8 15 8 8 0 15 5 15 10 0 6 6
10 13 10 7 0 19 9 27 20 8 11 18 20 22 20 9 0 39 24 75 58 13 12 26 22 28 22
3 0 21 16 41 35 20 19 41 32 47 28 7 -3 9 -3 5 1 -6 8 8 25 91 115 18 20 51
59 73 88 21 28 46 54 55 57 17 7 63 -18 63 -34 0 -6 4 -10 10 -10 5 0 33 -18
62 -40 29 -22 56 -40 60 -40 8 0 36 -22 63 -47 8 -7 18 -13 24 -13 6 0 21 -10
34 -22 12 -13 24 -23 27 -23 18 -2 59 -21 98 -46 25 -16 54 -29 64 -29 10 0
18 -4 18 -10 0 -5 10 -10 23 -10 13 0 27 -4 33 -9 5 -5 25 -12 44 -14 19 -3
36 -6 38 -7 1 -2 5 -3 10 -5 4 -1 20 -5 36 -10 16 -4 61 -9 100 -10 77 -1 160
24 176 55 21 39 37 250 28 370 -4 52 -7 115 -8 139 0 25 -4 47 -10 51 -5 3
-12 23 -16 45 -3 21 -10 48 -14 61 -5 12 -6 25 -3 28 4 3 2 6 -4 6 -9 0 -28
54 -24 73 0 4 -3 7 -9 7 -5 0 -10 9 -10 20 0 11 -5 20 -11 20 -5 0 -8 4 -5 9
3 4 -5 21 -19 37 -13 15 -22 30 -20 32 2 2 -14 33 -36 68 -57 90 -59 108 -9
156 22 22 40 45 40 52 0 7 9 22 20 34 12 12 18 22 15 22 -3 0 4 19 16 43 12
23 21 43 20 45 -1 1 6 18 14 38 8 20 17 46 19 58 2 11 8 39 13 61 11 47 7 65
-14 65 -9 0 -14 3 -10 6 3 3 -11 20 -30 37 -20 18 -47 42 -60 55 -13 12 -27
22 -31 22 -4 0 -14 9 -22 20 -8 11 -22 20 -32 20 -10 0 -18 5 -18 10 0 6 -7
10 -15 10 -8 0 -15 5 -15 10 0 6 -11 10 -24 10 -14 0 -28 4 -31 10 -6 9 -102
41 -135 45 -97 11 -205 14 -250 6 -30 -5 -60 -7 -67 -4 -20 8 11 63 36 63 6 0
10 5 9 10 -6 21 273 310 298 310 8 0 12 4 9 10 -3 5 9 19 27 30 18 11 29 20
24 20 -6 0 9 14 32 31 23 17 42 35 42 40 0 5 7 9 15 9 9 0 29 14 45 30 16 17
34 30 40 30 6 0 23 11 38 25 15 14 36 28 47 31 11 4 22 9 25 13 6 7 41 27 83
49 15 7 27 18 27 23 0 6 4 8 9 4 5 -3 12 -1 16 5 3 5 14 10 23 10 9 0 46 14
82 31 131 62 198 82 320 95 24 3 57 11 72 19 38 19 247 19 285 0 16 -7 48 -16
73 -20 56 -8 122 -26 134 -37 6 -4 21 -8 34 -8 13 0 21 -4 18 -8 -2 -4 7 -9
22 -10 14 -1 28 -5 31 -10 9 -12 92 -52 107 -52 8 0 14 -4 14 -10 0 -5 7 -10
15 -10 8 0 15 -4 15 -10 0 -5 6 -10 14 -10 8 0 22 -10 30 -22 9 -12 16 -19 16
-14 0 5 15 -3 34 -18 19 -14 37 -26 40 -26 3 0 14 -7 23 -15 10 -8 35 -27 55
-43 21 -16 35 -32 31 -36 -3 -3 -1 -6 6 -6 6 0 33 -22 60 -50 27 -27 54 -50
61 -50 8 0 10 -3 7 -7 -4 -3 6 -18 21 -32 15 -15 43 -47 62 -71 19 -25 38 -46
42 -48 5 -2 8 -11 8 -19 0 -9 8 -23 18 -32 16 -15 81 -132 82 -149 2 -21 13
-52 19 -52 10 0 32 -71 25 -82 -3 -4 -1 -8 4 -8 10 0 21 -40 27 -95 13 -105
16 -187 10 -202 -5 -10 -9 -27 -10 -38 -4 -49 -18 -121 -26 -130 -4 -6 -9 -22
-12 -35 -5 -33 -28 -80 -39 -80 -5 0 -6 -4 -3 -10 3 -5 -2 -21 -11 -35 -9 -14
-13 -25 -9 -25 3 0 -2 -12 -13 -27 -10 -16 -26 -45 -36 -65 -9 -21 -21 -38
-25 -38 -5 0 -11 -10 -15 -22 -3 -13 -16 -35 -28 -50 -13 -14 -30 -36 -38 -48
-39 -56 -280 -320 -293 -320 -3 0 -26 -20 -53 -44 -26 -25 -51 -43 -55 -40 -4
2 -10 -5 -14 -16 -3 -11 -13 -20 -21 -20 -8 0 -14 -4 -14 -8 0 -4 -12 -15 -27
-25 -16 -9 -44 -30 -63 -47 -19 -17 -47 -39 -62 -48 -15 -9 -28 -20 -28 -24 0
-4 -6 -8 -12 -8 -7 0 -25 -10 -40 -23 -14 -12 -36 -30 -47 -39 -12 -10 -26
-18 -32 -18 -9 0 -97 -56 -109 -69 -9 -10 -64 -42 -82 -48 -10 -3 -18 -9 -18
-14 0 -5 -6 -9 -14 -9 -7 0 -19 -7 -26 -15 -7 -8 -16 -13 -20 -10 -5 3 -10 1
-12 -4 -1 -5 -10 -11 -18 -13 -8 -2 -17 -6 -20 -9 -8 -10 -90 -57 -147 -85
-29 -14 -53 -29 -53 -34 0 -4 -12 -13 -27 -20 -47 -19 -73 -34 -73 -42 0 -5
-9 -8 -20 -8 -11 0 -20 -4 -20 -9 0 -5 -8 -11 -17 -15 -21 -6 -77 -39 -95 -54
-7 -6 -47 -28 -88 -50 -41 -21 -91 -48 -110 -60 -19 -12 -50 -29 -67 -38 -18
-9 -33 -20 -33 -25 0 -5 -7 -9 -15 -9 -15 0 -72 -30 -116 -61 -14 -9 -37 -21
-52 -24 -15 -4 -27 -11 -27 -17 0 -5 -4 -7 -9 -3 -5 3 -15 -1 -23 -8 -13 -13
-89 -59 -135 -81 -13 -6 -23 -14 -23 -18 0 -5 -9 -8 -20 -8 -11 0 -20 -3 -20
-8 0 -4 -28 -20 -62 -36 -35 -16 -67 -35 -71 -43 -4 -7 -15 -13 -23 -13 -9 0
-28 -9 -44 -20 -15 -11 -37 -21 -48 -23 -12 -2 -30 -11 -40 -20 -10 -9 -23
-17 -29 -17 -6 0 -13 -3 -15 -7 -1 -5 -23 -18 -48 -30 -25 -13 -52 -27 -60
-31 -8 -5 -28 -17 -45 -26 -16 -10 -38 -20 -47 -23 -10 -3 -18 -9 -18 -14 0
-5 -7 -9 -15 -9 -17 0 -50 -17 -78 -39 -9 -8 -17 -10 -17 -5 0 5 -4 4 -8 -1
-4 -6 -29 -21 -57 -34 -27 -14 -52 -27 -55 -30 -10 -12 -50 -31 -65 -31 -8 0
-15 -3 -15 -7 0 -5 -25 -19 -55 -33 -30 -14 -55 -28 -55 -32 0 -5 -9 -8 -20
-8 -11 0 -28 -9 -37 -20 -10 -11 -25 -20 -34 -20 -9 0 -47 -18 -83 -40 -36
-22 -70 -40 -76 -40 -5 0 -29 -11 -52 -25 -24 -14 -51 -28 -60 -32 -10 -3 -18
-9 -18 -13 0 -4 -13 -10 -29 -13 -16 -3 -35 -12 -42 -19 -8 -8 -45 -29 -84
-47 -38 -18 -72 -36 -75 -39 -8 -11 -94 -52 -107 -52 -7 0 -13 -4 -13 -10 0
-5 -7 -10 -15 -10 -8 0 -15 -4 -15 -8 0 -5 -18 -15 -40 -22 -22 -7 -38 -15
-36 -18 3 -2 -41 -28 -97 -57 -56 -29 -129 -66 -162 -84 -33 -17 -65 -31 -72
-31 -7 0 -13 -4 -13 -9 0 -5 -16 -15 -36 -21 -19 -7 -38 -18 -41 -26 -3 -8 -9
-11 -14 -8 -5 3 -9 1 -9 -5 0 -5 -13 -12 -30 -16 -16 -4 -32 -11 -35 -16 -3
-4 -23 -16 -43 -26 -20 -9 -39 -20 -42 -23 -3 -3 -20 -12 -37 -19 -18 -8 -33
-17 -33 -22 0 -5 -8 -9 -18 -9 -11 0 -29 -9 -42 -20 -13 -11 -29 -20 -37 -20
-7 0 -13 -3 -13 -7 0 -5 -24 -19 -53 -33 -28 -14 -67 -35 -86 -47 -18 -13 -37
-21 -41 -18 -5 3 -10 1 -12 -3 -1 -5 -34 -26 -73 -48 -38 -21 -83 -47 -100
-56 -16 -10 -47 -26 -67 -35 -21 -10 -38 -21 -38 -25 0 -5 -9 -8 -20 -8 -11 0
-25 -9 -32 -20 -7 -11 -18 -20 -25 -20 -7 0 -32 -11 -55 -25 -24 -14 -51 -28
-60 -32 -10 -3 -18 -9 -18 -14 0 -5 -6 -9 -14 -9 -8 0 -16 -4 -18 -10 -2 -5
-15 -11 -30 -12 -15 -1 -25 -4 -23 -7 11 -10 -61 -37 -77 -29 -16 8 -17 21
-12 121 3 62 7 204 9 317 2 113 6 223 8 245 3 22 9 164 12 315 4 151 8 343 11
425 6 211 6 1846 0 1925 -3 36 -7 105 -11 154 -3 48 -7 92 -10 96 -3 5 -8 44
-11 87 -2 43 -7 85 -9 93 -2 8 -7 40 -10 70 -4 30 -8 57 -10 60 -2 3 -6 30
-10 60 -3 30 -13 80 -21 110 -8 30 -18 71 -21 90 -3 19 -14 58 -25 85 -11 28
-20 52 -20 55 0 12 -42 86 -52 92 -6 4 -8 8 -4 8 10 0 -41 50 -51 50 -4 0 -16
9 -25 19 -10 11 -37 25 -62 32 -24 7 -44 17 -44 21 0 4 -7 8 -15 8 -8 0 -15 4
-15 8 0 4 -8 8 -17 9 -10 1 -32 2 -50 4 -18 1 -31 5 -29 8 2 3 -35 5 -82 5
-79 -1 -177 -23 -192 -43 -8 -10 -64 -35 -73 -32 -5 1 -11 -8 -14 -19 -3 -11
-10 -20 -17 -20 -6 -1 -29 -23 -51 -51 -21 -28 -55 -68 -75 -89 -86 -95 -125
-141 -129 -153 -2 -6 -20 -29 -40 -49 -41 -41 -47 -49 -81 -98 -14 -19 -37
-48 -52 -65 -16 -16 -28 -33 -28 -38 0 -4 -15 -23 -32 -41 -18 -19 -38 -40
-43 -47 -40 -54 -81 -105 -90 -111 -5 -4 -6 -8 -2 -8 4 0 3 -6 -3 -12 -24 -29
-46 -58 -60 -79 -8 -12 -29 -37 -47 -56 -17 -18 -29 -33 -26 -33 4 0 -2 -9
-12 -20 -10 -11 -22 -17 -26 -14 -5 3 -6 -2 -3 -10 3 -9 1 -16 -5 -16 -6 0
-11 -6 -11 -14 0 -8 -4 -16 -8 -18 -5 -1 -22 -23 -39 -48 -17 -25 -45 -61 -62
-79 -17 -18 -31 -37 -31 -42 0 -5 -13 -22 -30 -37 -16 -16 -30 -34 -30 -41 0
-6 -3 -11 -7 -11 -5 -1 -24 -24 -43 -52 -19 -28 -43 -59 -52 -69 -10 -11 -18
-21 -18 -24 0 -3 -11 -17 -23 -31 -13 -14 -35 -43 -48 -64 -13 -22 -30 -40
-36 -40 -7 0 -13 -6 -13 -13 0 -7 -16 -32 -36 -55 -19 -23 -33 -42 -29 -42 4
0 0 -6 -7 -14 -7 -7 -20 -23 -28 -36 -8 -12 -24 -32 -35 -45 -43 -49 -53 -64
-48 -69 4 -3 1 -6 -5 -6 -7 0 -12 -7 -12 -15 0 -8 -5 -15 -10 -15 -6 0 -16
-11 -22 -25 -6 -14 -17 -25 -25 -25 -7 0 -12 -3 -12 -7 3 -20 -3 -32 -33 -65
-57 -60 -96 -107 -91 -111 2 -2 -8 -15 -22 -28 -13 -13 -25 -28 -25 -32 0 -5
-6 -14 -12 -21 -7 -8 -20 -24 -28 -36 -8 -13 -29 -38 -46 -56 -17 -18 -34 -40
-37 -49 -4 -8 -11 -15 -16 -15 -5 0 -12 -9 -16 -19 -5 -17 -22 -38 -104 -127
-11 -12 -17 -24 -15 -27 3 -3 -3 -8 -14 -11 -17 -6 -31 -24 -34 -46 -1 -3 -13
-14 -28 -25 -15 -11 -28 -24 -30 -30 -5 -20 -27 -45 -33 -38 -4 3 -7 -1 -7
-10 0 -10 -4 -17 -10 -17 -5 0 -10 -5 -10 -11 0 -6 -13 -23 -30 -39 -16 -15
-26 -30 -23 -34 3 -3 -1 -6 -10 -6 -9 0 -17 -4 -17 -9 0 -5 -9 -12 -19 -16
-10 -3 -22 -16 -25 -29 -6 -25 -40 -68 -48 -61 -2 3 -11 -6 -18 -20 -7 -14
-17 -25 -22 -25 -4 0 -8 -6 -8 -12 -1 -7 -14 -24 -30 -38 -17 -13 -30 -30 -30
-37 0 -7 -6 -13 -14 -13 -8 0 -24 -14 -37 -31 -13 -17 -32 -39 -42 -48 -51
-45 -67 -60 -67 -65 0 -2 -19 -24 -42 -49 -24 -24 -63 -65 -86 -91 -24 -25
-49 -43 -54 -40 -6 4 -8 2 -5 -3 7 -11 -90 -100 -105 -95 -5 1 -7 -1 -4 -6 7
-12 -43 -64 -55 -57 -5 4 -9 0 -9 -7 0 -14 -70 -96 -70 -82 0 4 -15 -9 -34
-29 -18 -20 -36 -37 -39 -37 -3 0 -21 -15 -40 -32 -58 -54 -86 -76 -91 -71 -2
3 -9 -4 -15 -15 -13 -25 -28 -39 -71 -72 -18 -14 -40 -32 -49 -41 -9 -9 -53
-43 -98 -77 -45 -33 -80 -62 -77 -64 2 -3 -8 -11 -24 -19 -15 -8 -36 -22 -46
-31 -11 -10 -26 -18 -33 -18 -7 0 -18 -9 -25 -20 -7 -11 -20 -20 -29 -20 -9 0
-22 -7 -29 -15 -7 -8 -16 -12 -21 -9 -5 3 -9 0 -9 -5 0 -6 -3 -10 -7 -9 -5 1
-21 -4 -36 -10 -41 -17 -111 -24 -138 -13 -38 14 -69 46 -80 83 -14 45 -20
440 -7 486 6 20 11 55 13 77 1 22 7 51 12 65 6 14 9 28 7 32 -4 7 13 102 23
128 8 20 12 48 14 93 1 21 8 44 15 52 8 8 13 18 12 22 -1 4 1 22 5 38 4 17 9
44 12 62 3 18 9 42 14 55 4 13 6 29 4 36 -3 6 -1 12 5 12 5 0 9 6 10 13 2 31
15 84 23 100 5 9 7 17 5 17 -3 0 1 18 9 40 8 22 15 44 15 48 2 19 15 68 52
196 22 76 41 144 42 150 1 6 5 16 8 22 4 6 9 22 12 37 2 15 7 31 11 37 3 5 8
19 11 30 9 42 13 57 38 128 14 39 22 72 19 72 -3 0 -1 6 5 13 5 6 29 68 52
137 23 69 46 134 51 145 6 12 11 27 13 35 1 8 11 33 21 55 9 22 17 50 16 63 0
12 3 22 8 22 9 0 29 42 35 76 3 12 21 61 42 110 21 48 37 96 37 106 -1 10 2
18 8 18 5 0 9 7 9 16 0 8 13 43 29 77 16 34 35 79 42 100 7 20 17 37 21 37 4
0 7 3 6 8 0 4 6 24 15 45 10 20 24 54 34 75 9 20 15 40 15 45 -1 4 3 7 8 7 6
0 10 9 10 19 0 11 7 26 15 35 8 8 15 19 15 24 0 5 8 27 17 48 9 22 18 46 19
54 2 8 8 16 14 18 5 2 8 8 5 12 -3 5 -2 17 3 27 12 23 32 86 38 120 3 15 7 29
9 33 8 13 20 130 20 200 0 68 -15 185 -25 198 -2 1 -3 5 -5 10 -1 4 -9 24 -18
44 -10 21 -17 40 -17 44 0 3 -9 19 -21 35 -11 16 -18 29 -14 29 12 0 -94 111
-180 188 -14 12 -25 20 -25 16 0 -4 -8 -1 -17 7 -10 8 -31 21 -48 29 -16 8
-33 19 -36 23 -3 5 -20 9 -37 9 -18 1 -32 4 -32 8 0 7 -47 23 -124 40 -98 22
-328 -1 -364 -37 -7 -7 -22 -13 -32 -13 -10 0 -25 -6 -32 -12 -7 -7 -29 -22
-48 -32 -19 -11 -51 -38 -70 -60 -19 -22 -45 -51 -57 -63 -12 -13 -20 -23 -17
-23 3 0 -5 -11 -18 -24 -37 -38 -68 -79 -68 -92 0 -7 -7 -14 -15 -18 -8 -3
-15 -13 -15 -23 0 -10 -7 -27 -15 -37 -8 -10 -12 -23 -9 -27 3 -5 1 -9 -4 -9
-5 0 -15 -15 -23 -32 -7 -18 -16 -35 -19 -38 -10 -9 -35 -74 -32 -87 1 -6 -2
-14 -8 -18 -5 -3 -10 -15 -10 -26 0 -10 -4 -19 -8 -19 -5 0 -9 -6 -9 -12 -1
-19 -7 -42 -13 -48 -8 -6 -31 -86 -37 -125 -3 -16 -8 -37 -13 -45 -4 -8 -15
-48 -24 -89 -10 -41 -20 -79 -24 -85 -3 -6 -8 -22 -10 -36 -1 -14 -12 -49 -23
-78 -10 -29 -24 -72 -29 -95 -17 -67 -18 -71 -28 -97 -5 -14 -10 -28 -11 -33
0 -4 -7 -23 -15 -42 -9 -20 -15 -38 -15 -42 1 -3 -4 -9 -9 -12 -5 -3 -19 -25
-31 -48 -12 -24 -26 -43 -31 -43 -6 0 -10 -5 -10 -12 0 -11 -55 -88 -99 -137
-11 -13 -21 -27 -21 -31 0 -4 -11 -13 -25 -20 -14 -7 -23 -15 -21 -18 5 -4
-60 -72 -69 -72 -9 0 -45 -40 -45 -50 0 -5 -8 -10 -17 -10 -10 0 -30 -10 -45
-23 -14 -12 -36 -30 -47 -39 -11 -10 -39 -27 -62 -39 -23 -11 -51 -29 -62 -40
-18 -17 -30 -21 -53 -18 -3 0 -13 -8 -22 -18 -9 -10 -28 -19 -41 -21 -13 -2
-40 -13 -60 -24 -31 -18 -55 -21 -169 -22 -78 -1 -136 3 -140 9 -4 6 -32 11
-62 12 -39 1 -59 7 -70 20 -8 10 -22 17 -31 15 -22 -4 -42 39 -36 79 3 19 15
64 26 102 11 37 17 67 13 67 -3 0 -1 5 6 12 7 7 12 26 12 43 0 17 4 35 10 41
5 5 12 23 14 39 2 17 8 41 13 55 5 14 9 32 8 40 -1 8 2 20 6 25 4 6 10 28 13
50 4 21 12 43 19 47 6 4 9 8 6 8 -4 0 2 42 13 93 10 50 21 105 24 121 3 16 8
34 11 40 4 5 8 26 9 45 1 20 7 51 12 69 6 17 9 32 7 32 -2 0 2 17 9 38 7 20
12 45 10 55 -1 9 2 32 6 50 5 17 11 48 14 67 3 19 8 46 11 60 3 14 7 47 10 73
2 26 7 53 11 58 3 6 8 25 9 42 2 18 6 52 10 77 4 25 8 65 10 90 5 67 27 253
32 269 21 72 19 1106 -2 1141 -4 6 -9 45 -11 88 -2 42 -9 106 -15 142 -6 36
-13 78 -16 94 -3 16 -10 41 -15 55 -6 14 -13 37 -15 50 -2 13 -11 42 -19 65
-8 23 -16 48 -19 57 -10 45 -92 187 -127 221 -22 21 -36 38 -32 38 5 0 -12 18
-36 41 -25 22 -44 45 -42 50 1 5 -7 9 -17 9 -11 0 -27 7 -35 15 -9 9 -42 21
-73 27 -32 5 -65 13 -73 17 -8 4 -55 2 -105 -5z m25 -334 c31 -16 124 -111
128 -131 2 -7 9 -17 15 -21 7 -4 8 -8 2 -8 -6 0 -5 -3 1 -8 16 -10 54 -88 47
-96 -4 -3 -2 -6 4 -6 9 0 16 -14 28 -55 1 -5 5 -26 9 -45 3 -19 10 -60 17 -90
6 -30 13 -170 16 -310 12 -552 8 -695 -23 -890 -5 -32 -14 -123 -18 -176 -2
-22 -6 -46 -9 -51 -4 -6 -9 -30 -12 -54 -3 -24 -7 -55 -10 -69 -3 -14 -8 -54
-10 -89 -3 -35 -8 -67 -10 -72 -3 -4 -8 -36 -11 -70 -3 -35 -7 -66 -9 -69 -2
-4 -7 -29 -10 -56 -3 -27 -8 -59 -11 -71 -2 -13 -7 -49 -9 -80 -3 -32 -9 -67
-12 -78 -4 -11 -8 -31 -8 -45 -2 -32 -14 -105 -30 -183 -4 -21 -8 -55 -8 -77
0 -22 -4 -40 -7 -40 -4 0 -7 -6 -8 -12 0 -7 -3 -26 -6 -43 -3 -16 -9 -46 -13
-65 -3 -19 -6 -38 -5 -43 1 -4 -7 -49 -18 -100 -11 -50 -21 -104 -22 -119 -3
-33 -29 -46 -43 -22 -5 9 -20 27 -33 40 -13 13 -19 24 -15 24 4 0 3 4 -2 8
-16 11 -98 152 -98 168 0 8 -3 14 -7 14 -7 0 -71 126 -74 146 -1 6 -9 23 -19
37 -9 15 -17 33 -17 41 0 8 -5 18 -11 21 -11 7 -32 52 -33 73 -1 7 -7 16 -14
21 -8 5 -13 11 -13 15 1 3 -6 23 -15 44 -9 20 -17 42 -18 47 -1 6 -6 17 -11
25 -9 15 -15 34 -17 58 -1 6 -6 12 -11 12 -6 0 -7 3 -4 6 3 4 2 15 -4 26 -6
11 -12 27 -14 36 -2 9 -10 37 -18 62 -8 25 -23 72 -32 105 -9 33 -20 65 -25
70 -4 6 -10 30 -13 55 -2 25 -7 56 -11 70 -9 39 -17 81 -20 122 -2 20 -6 40
-9 45 -3 4 -8 33 -12 63 -3 30 -8 63 -11 73 -3 9 -7 46 -9 81 -1 36 -6 69 -9
75 -4 6 -9 48 -12 93 -3 46 -8 117 -12 159 -19 189 -2 669 25 749 3 8 6 32 8
52 1 21 8 45 15 53 7 8 10 15 7 15 -3 0 4 24 15 53 11 28 26 68 33 87 7 19 22
45 33 57 11 12 17 25 14 28 -3 3 0 5 6 5 7 0 12 5 12 11 0 12 55 87 79 107 8
6 11 12 7 12 -6 0 47 53 121 120 37 33 93 60 111 52 10 -3 13 -1 8 6 -14 22
142 24 184 2z m9520 -1380 c13 -11 27 -20 32 -20 4 0 8 -7 8 -16 0 -8 4 -13 9
-9 11 6 47 -27 88 -82 15 -21 34 -44 41 -52 8 -8 11 -22 9 -32 -3 -11 -2 -19
3 -19 7 0 32 -51 32 -67 0 -4 5 -19 10 -33 19 -50 25 -207 13 -332 -8 -81 -21
-108 -53 -108 -31 0 -94 21 -104 35 -4 5 -8 7 -8 3 0 -4 -12 -3 -27 3 -16 6
-39 13 -53 15 -33 6 -91 24 -112 35 -10 5 -29 9 -42 9 -13 0 -37 7 -52 15 -16
8 -36 15 -44 15 -9 0 -21 5 -26 10 -6 6 -30 13 -55 16 -24 4 -46 9 -49 13 -3
3 -16 8 -29 9 -14 2 -35 11 -49 20 -13 8 -38 16 -55 18 -18 1 -53 11 -80 23
-26 11 -50 20 -53 20 -6 -1 -55 17 -102 38 -18 8 -42 16 -54 18 -12 3 -40 13
-62 23 -23 11 -70 30 -106 43 -36 13 -66 27 -68 31 -2 4 -9 8 -16 8 -22 0 -66
25 -63 35 2 6 13 11 25 13 12 2 22 8 22 14 0 6 3 8 7 5 3 -4 11 -3 17 2 11 9
50 14 218 26 78 6 218 -6 258 -22 8 -3 24 -7 35 -9 34 -6 100 -27 110 -36 5
-4 17 -8 27 -8 10 0 18 -4 18 -9 0 -5 11 -12 25 -15 14 -4 28 -13 31 -20 8
-20 54 4 55 29 2 51 16 100 49 173 16 34 34 62 40 62 5 0 10 5 10 11 0 21 115
118 141 119 3 0 16 -9 29 -20z m-1007 -606 c28 -15 60 -31 69 -35 10 -5 27 -9
39 -9 11 0 23 -8 25 -17 4 -12 17 -19 42 -21 20 -1 41 -7 46 -12 6 -6 18 -10
28 -10 10 0 18 -4 18 -8 0 -5 23 -15 51 -22 27 -8 52 -18 55 -22 3 -4 14 -8
25 -8 11 0 37 -9 57 -19 20 -10 51 -20 67 -22 17 -2 45 -12 63 -21 18 -10 40
-18 48 -18 26 0 144 -43 144 -52 0 -5 4 -7 9 -3 5 3 29 -1 53 -10 58 -19 172
-46 225 -52 30 -3 44 -10 48 -24 6 -19 -22 -79 -38 -79 -4 0 -5 -4 -2 -10 3
-5 1 -10 -4 -10 -6 0 -11 -5 -11 -10 0 -6 -8 -20 -18 -31 -11 -10 -25 -32 -33
-47 -8 -15 -21 -32 -30 -39 -9 -7 -22 -26 -29 -43 -7 -16 -16 -30 -21 -30 -5
0 -9 -5 -9 -11 0 -6 -10 -24 -22 -39 -29 -35 -46 -59 -62 -90 -7 -14 -18 -24
-25 -22 -7 1 -10 -2 -7 -7 4 -5 -1 -16 -9 -24 -8 -9 -15 -20 -15 -26 0 -5 -10
-18 -23 -28 -21 -16 -28 -27 -38 -58 -1 -5 -11 -19 -21 -29 -10 -11 -18 -26
-18 -35 0 -8 -3 -12 -6 -8 -6 6 -42 -25 -38 -34 2 -3 -15 -29 -37 -57 -21 -29
-39 -56 -39 -60 0 -4 -16 -25 -35 -46 -19 -22 -35 -44 -35 -49 0 -5 -14 -27
-31 -48 -17 -21 -28 -39 -25 -39 3 0 -4 -11 -15 -24 -12 -13 -20 -27 -19 -31
1 -4 -8 -15 -19 -24 -12 -10 -21 -22 -21 -27 0 -5 -15 -23 -34 -40 -19 -17
-37 -42 -41 -55 -4 -13 -11 -26 -15 -29 -13 -10 -70 -99 -70 -109 0 -6 -6 -11
-14 -11 -7 0 -19 -13 -26 -30 -7 -16 -17 -30 -23 -30 -6 0 -8 -3 -4 -6 3 -3
-9 -22 -26 -41 -18 -19 -32 -40 -32 -46 0 -17 -35 -21 -36 -5 0 7 -3 27 -7 43
-9 44 -7 408 3 490 9 82 10 85 19 107 4 9 9 25 11 35 2 10 4 18 5 18 2 0 6 21
14 66 3 20 10 49 17 65 6 16 12 36 14 44 2 8 14 42 26 75 13 33 23 62 24 65 1
16 29 70 35 70 5 0 6 9 3 20 -3 11 -1 20 4 20 5 0 25 30 43 68 19 37 38 72 43
77 7 9 26 37 62 94 6 9 22 28 38 43 15 15 27 34 27 43 0 9 5 13 10 10 6 -3 10
0 10 7 0 8 9 20 20 28 29 21 25 43 -10 58 -18 8 -27 18 -23 25 3 7 3 9 -1 5
-7 -6 -105 37 -116 52 -3 3 -20 12 -37 19 -18 8 -33 18 -33 23 0 5 -3 7 -8 5
-4 -3 -30 10 -57 29 -28 18 -55 34 -60 34 -6 0 -16 9 -23 20 -7 11 -18 20 -25
20 -7 0 -30 15 -50 33 -20 17 -52 45 -72 62 -67 57 -32 74 58 29z m2117 -199
c25 -4 46 -11 48 -16 2 -4 19 -13 38 -19 19 -6 34 -16 34 -21 0 -5 6 -9 14 -9
19 0 86 -63 86 -82 0 -9 -7 -21 -15 -28 -9 -7 -13 -15 -10 -18 10 -10 -62
-129 -105 -173 -25 -25 -67 -58 -95 -74 -79 -46 -80 -50 -18 -114 82 -85 89
-93 109 -131 10 -19 24 -38 29 -42 6 -4 6 -8 2 -8 -4 0 -2 -7 5 -15 29 -34 33
-41 36 -55 2 -8 8 -16 13 -18 5 -2 9 -12 9 -23 0 -10 4 -19 9 -19 7 0 20 -43
21 -65 0 -3 7 -19 15 -35 9 -17 13 -30 10 -30 -3 0 1 -13 10 -30 9 -16 14 -30
12 -30 -3 0 0 -19 5 -42 5 -24 11 -69 12 -100 3 -51 1 -58 -16 -58 -20 0 -145
125 -141 141 2 5 -3 9 -10 9 -6 0 -23 14 -37 31 -14 17 -36 43 -50 59 -70 78
-80 90 -80 95 0 2 -20 26 -45 51 -24 26 -42 50 -40 54 3 5 -2 10 -10 14 -8 3
-15 12 -15 21 0 8 -5 15 -11 15 -6 0 -17 7 -25 15 -9 8 -13 15 -9 15 6 0 -6
16 -42 54 -12 13 -19 27 -16 30 4 3 0 6 -7 6 -7 0 -10 3 -7 6 3 4 -8 20 -24
35 -17 16 -28 29 -25 29 7 0 -5 16 -42 55 -13 14 -20 25 -17 25 3 0 1 6 -5 13
-6 6 -28 37 -50 67 -21 30 -47 64 -57 75 -10 11 -24 32 -32 47 -7 15 -28 42
-45 61 -51 55 -52 83 -6 108 19 10 40 22 45 26 26 20 75 43 75 36 0 -4 4 -3 8
2 6 9 26 16 102 36 8 2 17 7 20 11 3 4 23 8 44 10 20 1 40 6 43 11 6 9 182 4
253 -8z m-762 -369 c15 -22 33 -53 41 -68 8 -16 18 -28 21 -28 4 0 13 -13 20
-30 7 -16 19 -30 26 -30 8 0 14 -4 14 -10 0 -22 -1 -20 51 -80 17 -19 40 -52
52 -72 11 -21 24 -38 28 -38 4 0 17 -16 30 -36 12 -20 39 -53 60 -74 21 -21
35 -40 32 -44 -4 -3 0 -6 7 -6 7 0 11 -2 8 -5 -3 -3 14 -26 38 -51 24 -25 44
-49 44 -54 0 -4 15 -24 34 -43 19 -20 32 -38 28 -41 -3 -3 0 -6 6 -6 12 0 49
-36 92 -90 45 -56 99 -110 110 -110 6 0 10 -10 8 -22 -2 -17 -9 -22 -23 -20
-11 2 -22 7 -25 10 -3 4 -12 8 -20 10 -8 2 -16 8 -18 13 -2 5 -9 9 -16 9 -6 0
-25 12 -42 28 -31 28 -37 32 -55 32 -5 0 -7 5 -3 12 4 6 3 8 -3 5 -6 -4 -19 1
-30 11 -11 9 -35 28 -54 42 -18 14 -53 44 -77 68 -25 23 -48 42 -54 42 -5 0
-6 5 -3 10 3 6 -1 10 -9 10 -9 0 -16 5 -16 10 0 6 -5 10 -11 10 -6 0 -28 19
-49 41 -45 50 -59 47 -91 -16 -13 -26 -33 -56 -44 -68 -12 -12 -27 -37 -34
-54 -7 -18 -18 -30 -24 -26 -5 3 -7 1 -4 -4 4 -6 -6 -24 -21 -41 -15 -17 -43
-49 -62 -72 -40 -49 -55 -64 -138 -142 -34 -32 -64 -58 -67 -58 -12 0 -34 -28
-28 -34 4 -3 -1 -6 -10 -6 -10 0 -25 -9 -34 -20 -10 -11 -23 -20 -30 -20 -7 0
-13 -4 -13 -8 0 -9 -51 -36 -59 -32 -2 1 -8 -5 -13 -13 -4 -9 -21 -22 -36 -29
-36 -19 -76 -42 -82 -48 -3 -3 -30 -17 -60 -31 -30 -14 -80 -38 -110 -52 -30
-15 -61 -27 -68 -27 -6 0 -12 -4 -12 -10 0 -5 -8 -10 -19 -10 -10 0 -70 -16
-132 -36 -149 -46 -158 -48 -165 -30 -5 14 31 77 48 84 4 2 8 8 8 14 0 9 58
99 70 108 4 3 12 15 19 28 7 12 16 20 22 17 5 -4 9 -3 8 2 -3 19 2 31 26 59
14 16 25 33 25 37 0 5 4 5 10 2 5 -3 7 0 5 7 -3 8 4 23 15 35 11 12 20 27 20
33 0 5 5 10 10 10 6 0 10 7 10 15 0 8 5 15 10 15 6 0 10 7 10 15 0 8 8 19 18
24 10 5 27 26 37 45 11 20 23 36 28 36 4 0 5 5 2 10 -3 6 -2 10 4 10 5 0 13 9
16 20 4 11 17 32 31 45 13 13 24 28 24 32 0 4 14 24 30 43 16 19 30 39 30 43
0 4 5 13 10 20 38 45 50 61 50 67 0 4 10 18 21 31 12 13 42 54 66 92 24 37 49
67 55 67 6 0 9 3 5 6 -5 5 7 24 43 64 8 9 16 23 18 31 2 7 9 17 15 21 7 4 9 8
5 8 -7 0 5 17 47 64 6 6 11 17 13 25 1 7 8 19 15 26 7 7 19 23 27 35 8 12 30
42 48 66 18 24 30 44 26 44 -4 0 2 8 13 18 11 9 25 27 32 39 15 29 34 21 69
-31z m-4113 -5263 c-10 -81 -11 -97 -19 -193 -4 -47 -12 -98 -17 -115 -5 -16
-11 -57 -14 -90 -2 -33 -9 -87 -15 -120 -18 -96 -19 -108 -24 -155 -3 -25 -12
-76 -20 -115 -16 -77 -58 -301 -61 -325 -1 -8 -5 -26 -8 -40 -4 -14 -8 -39
-11 -57 -2 -17 -7 -36 -10 -41 -3 -5 -8 -24 -10 -43 -3 -19 -12 -62 -20 -95
-8 -34 -16 -78 -18 -98 -1 -20 -5 -36 -8 -36 -3 0 -15 -42 -25 -92 -10 -51
-24 -110 -31 -130 -7 -21 -16 -56 -19 -79 -4 -22 -10 -52 -15 -65 -5 -13 -7
-24 -4 -24 2 0 0 -9 -6 -19 -5 -11 -13 -36 -16 -57 -3 -20 -10 -49 -16 -63 -6
-14 -13 -44 -15 -65 -2 -22 -8 -47 -13 -57 -5 -9 -14 -38 -21 -65 -6 -27 -12
-53 -14 -59 -1 -5 -6 -25 -10 -42 -4 -18 -11 -33 -15 -33 -5 0 -7 -8 -6 -17 2
-10 -5 -41 -15 -70 -9 -28 -14 -54 -11 -58 4 -3 1 -9 -5 -13 -6 -4 -13 -20
-16 -37 -3 -16 -10 -42 -16 -57 -6 -16 -8 -28 -6 -28 3 0 -1 -15 -9 -34 -8
-19 -12 -37 -8 -40 3 -3 0 -6 -6 -6 -7 0 -11 -3 -10 -7 1 -5 -4 -20 -10 -35
-6 -15 -13 -38 -15 -50 -2 -13 -6 -30 -10 -38 -9 -24 -53 -160 -72 -220 -22
-73 -66 -184 -75 -190 -4 -3 -6 -13 -4 -23 1 -9 -4 -23 -11 -31 -8 -7 -11 -16
-8 -20 4 -3 -3 -27 -15 -54 -44 -99 -82 -205 -82 -228 0 -15 -6 -24 -15 -24
-8 0 -14 -3 -13 -7 2 -5 -6 -28 -16 -53 -11 -25 -19 -48 -18 -52 1 -5 -3 -8
-8 -8 -6 0 -10 -7 -10 -15 0 -9 -14 -46 -31 -83 -18 -37 -31 -68 -30 -70 1 -1
-19 -42 -43 -91 -25 -49 -42 -91 -39 -95 4 -3 2 -6 -4 -6 -5 0 -18 -18 -28
-40 -10 -22 -23 -40 -28 -40 -6 0 -8 -3 -4 -6 6 -7 -25 -70 -60 -123 -13 -19
-21 -36 -19 -39 3 -2 -4 -13 -15 -25 -10 -11 -19 -27 -19 -34 0 -7 -4 -13 -8
-13 -5 0 -14 -11 -20 -25 -7 -14 -17 -31 -22 -38 -6 -7 -25 -34 -42 -62 -18
-27 -41 -58 -51 -67 -10 -9 -19 -20 -19 -25 -1 -11 -60 -97 -70 -101 -4 -2 -8
-7 -8 -12 0 -5 -12 -22 -27 -38 -16 -16 -39 -44 -53 -62 -30 -41 -61 -70 -72
-70 -5 0 -7 -4 -4 -8 5 -9 -21 -45 -74 -103 -14 -15 -38 -44 -55 -64 -16 -21
-45 -51 -62 -68 -18 -17 -33 -36 -33 -44 0 -7 -4 -13 -10 -13 -8 0 -49 -34
-85 -71 -5 -5 -18 -18 -29 -27 -10 -9 -34 -32 -52 -50 -18 -17 -36 -32 -40
-32 -4 0 -14 -8 -23 -19 -9 -10 -31 -26 -48 -35 -18 -9 -33 -22 -33 -28 0 -6
-3 -8 -7 -5 -3 4 -19 -7 -35 -23 -15 -17 -35 -30 -43 -30 -8 0 -15 -4 -15 -9
0 -5 -15 -15 -32 -22 -18 -7 -42 -21 -52 -31 -11 -10 -26 -18 -34 -18 -7 0
-20 -7 -29 -15 -8 -8 -19 -13 -24 -10 -5 4 -9 2 -9 -4 0 -8 -21 -19 -55 -27
-5 -2 -34 -12 -64 -23 -32 -12 -92 -23 -145 -27 -50 -3 -94 -8 -98 -10 -10 -6
-192 38 -196 48 -2 4 -10 8 -18 8 -8 0 -14 5 -14 10 0 6 -6 10 -14 10 -20 0
-160 140 -181 180 -10 19 -24 40 -31 48 -13 13 -17 25 -11 38 1 3 -6 10 -16
15 -9 6 -15 14 -12 19 3 5 1 11 -5 15 -6 4 -8 11 -5 16 4 5 1 9 -6 9 -7 0 -10
3 -6 6 3 4 0 19 -9 35 -8 16 -12 29 -8 29 4 0 2 6 -4 13 -13 16 -34 93 -37
138 -1 20 -5 40 -8 45 -3 6 -8 37 -12 69 -4 33 -10 85 -14 115 -8 65 -6 337 3
396 4 22 8 66 11 97 3 31 7 76 11 99 3 24 7 60 8 80 1 20 7 43 13 50 6 7 13
33 16 58 4 25 8 54 10 65 3 11 8 38 12 60 4 22 12 49 18 60 6 11 13 31 15 45
1 14 18 67 37 119 19 52 35 99 35 106 0 16 29 73 40 80 5 3 7 12 3 20 -3 8 0
15 6 15 6 0 11 8 11 18 0 10 9 37 20 60 11 22 20 45 20 51 0 5 5 11 11 13 5 2
11 10 13 18 4 25 56 131 71 147 9 8 13 19 10 24 -4 5 -1 9 4 9 6 0 11 9 11 19
0 11 4 21 8 23 8 3 56 78 57 88 1 11 39 77 61 106 13 17 20 34 17 38 -4 3 -1
6 5 6 7 0 12 6 12 13 0 7 8 22 18 33 9 11 18 26 20 34 2 8 12 22 22 32 11 9
20 21 20 28 0 6 14 31 30 55 17 24 30 48 30 54 0 6 4 11 8 11 5 0 15 12 23 28
8 15 20 33 26 40 7 7 28 36 47 65 20 29 47 65 61 81 14 16 25 32 25 35 0 3 10
17 23 31 12 14 33 42 46 63 13 21 35 50 50 63 14 13 22 24 18 24 -4 0 2 11 15
24 13 13 34 39 48 57 14 18 31 38 38 46 7 7 11 13 8 13 -3 0 17 24 45 54 28
30 58 65 67 78 9 13 24 29 34 36 10 7 18 16 18 21 0 4 25 34 56 66 31 33 65
74 75 90 11 17 19 26 19 21 0 -9 22 14 147 151 105 116 163 173 173 173 6 0
10 6 10 13 0 6 12 21 28 31 15 10 45 40 67 67 22 26 43 48 46 48 4 1 29 24 57
51 28 28 55 50 61 50 5 0 12 8 15 18 4 9 22 31 42 47 20 17 54 47 76 67 22 21
44 35 49 32 5 -3 8 0 7 7 -2 6 16 27 40 45 24 19 40 34 36 34 -8 0 17 23 66
60 19 14 44 35 56 48 13 12 25 22 28 22 3 0 16 10 29 23 49 46 108 97 113 97
2 0 15 9 27 21 71 66 123 109 130 109 8 0 49 36 125 111 31 30 116 101 266
221 16 13 41 35 57 51 16 15 32 27 36 27 4 0 29 20 55 45 26 24 57 46 67 50
11 3 23 15 26 26 4 10 13 19 21 19 8 0 14 4 14 9 0 8 18 16 44 20 5 0 6 -24 1
-56z"/>
</g>
</svg>
